Coordinates
version=1
nRows=19
nColumns=33
inDegrees=yes

Units are S.I. units (second, meters, Newtons, ...)
Angles are in degrees.

endheader
time	ground_thorax_rot_x	ground_thorax_rot_y	ground_thorax_rot_z	ground_thorax_tx	ground_thorax_ty	ground_thorax_tz	clav_prot_r	clav_elev_r	scapula_abduction_r	scapula_elevation_r	scapula_upward_rot_r	scapula_winging_r	shoulder_elv_r	plane_of_elev_r	axial_rot_r	elbow_flexion_r	pro_sup_r	wrist_flex_r	wrist_dev_r	clav_prot_l	clav_elev_l	scapula_abduction_l	scapula_elevation_l	scapula_upward_rot_l	scapula_winging_l	shoulder_elv_l	plane_of_elev_l	axial_rot_l	elbow_flexion_l	pro_sup_l	wrist_flex_l	wrist_dev_l
      7.37000000	    -39.56701025	    -16.51453796	     22.62510347	   -194.94036124	    820.32884954	     -5.61152611	      9.05967303	    -45.00000000	     40.27774669	    -45.00000000	    -45.00000000	   2424.42320375	  -1185.62244873	    144.84553686	    179.99999979	   1812.94558364	     62.83914267	     26.74088305	     11.69615377	     16.03880671	     39.57447402	    -38.08131402	    -45.00000000	    -40.28278189	  -3156.46086816	  -2808.65637629	     26.66321006	    -25.92237913	   1810.98518527	     13.23568575	      6.37232228	    -19.48838070
      7.38000000	    -39.38467068	    -16.97966485	     23.15707680	   -191.06142013	    818.95736774	     -5.59832054	      9.07750860	    -45.00000000	     40.28626901	    -45.00000000	    -45.00000000	   2424.62654682	  -1185.84058108	    144.88034713	    179.99999979	   1812.70706547	     62.13808859	     26.65917314	     12.03431390	     16.07165480	     39.62109679	    -38.05777985	    -45.00000000	    -40.27600348	  -3156.63102799	  -2808.80716429	     26.67695567	    -26.15602890	   1810.92943102	     12.98149395	      6.60902517	    -19.40803491
      7.39000000	    -39.18228854	    -17.51325752	     23.70624338	   -187.08173252	    817.53336822	     -5.58560894	      9.24027945	    -45.00000000	     40.38854310	    -45.00000000	    -45.00000000	   2424.82274861	  -1186.09623223	    144.94313652	    179.99999979	   1812.44145473	     61.47223150	     26.58166422	     12.36912604	     15.98063849	     39.55313144	    -38.05537111	    -45.00000000	    -40.42953929	  -3156.76440348	  -2808.99332172	     26.74542597	    -26.16395689	   1810.83963323	     12.85608524	      6.82848706	    -19.31831311
      7.40000000	    -38.98008547	    -18.01414817	     24.27725075	   -183.00637109	    816.06321359	     -5.57345085	      9.17134582	    -45.00000000	     40.39416457	    -45.00000000	    -45.00000000	   2425.05148934	  -1186.29290369	    144.96821166	    179.99999979	   1812.16084467	     60.78652083	     26.51165857	     12.72877936	     16.15670183	     39.53051823	    -38.06473962	    -45.00000000	    -40.73421545	  -3157.06012487	  -2809.01433665	     26.73625913	    -26.21229335	   1810.75234489	     12.86259104	      7.06320143	    -19.23949168
      7.41000000	    -38.71755276	    -18.60341503	     24.91401254	   -178.84753964	    814.55683940	     -5.56176279	      9.32830014	    -45.00000000	     40.48408620	    -45.00000000	    -45.00000000	   2425.21055766	  -1186.64739423	    145.05576233	    179.99999979	   1811.84133644	     60.16063998	     26.44234566	     13.08242392	     16.08379322	     39.40297629	    -38.01019432	    -45.00000000	    -41.05445707	  -3157.25421650	  -2809.14746882	     26.81218579	    -26.21700429	   1810.66527006	     12.97435666	      7.23488712	    -19.15126172
      7.42000000	    -38.50343478	    -19.07534869	     25.48208399	   -174.60899516	    813.01995367	     -5.55026455	      9.21324449	    -45.00000000	     40.47311235	    -45.00000000	    -45.00000000	   2425.50409143	  -1186.85968018	    145.11800700	    179.99999979	   1811.48075941	     59.53197457	     26.31650088	     13.43592082	     16.25904948	     39.47356570	    -38.04078079	    -45.00000000	    -41.16592111	  -3157.49159427	  -2809.29098923	     26.72672765	    -26.48237118	   1810.62301390	     13.21635153	      7.42785805	    -19.09072856
      7.43000000	    -38.18833486	    -19.66470490	     26.17845089	   -170.30277977	    811.46154354	     -5.53843006	      9.38200416	    -45.00000000	     40.56712237	    -45.00000000	    -45.00000000	   2425.65657841	  -1187.22279353	    145.21008171	    179.99999979	   1811.09179875	     58.95688564	     26.21984255	     13.78996613	     16.21300197	     39.33095704	    -37.96962139	    -45.00000000	    -41.58590037	  -3157.73722821	  -2809.44407358	     26.82320515	    -26.57835280	   1810.49167286	     13.50978699	      7.55924692	    -18.99722748
      7.44000000	    -37.95715404	    -20.12076977	     26.80995747	   -165.94201283	    809.88954394	     -5.52513884	      9.16181921	    -45.00000000	     40.47783935	    -45.00000000	    -45.00000000	   2425.89870667	  -1187.48997408	    145.29141056	    179.99999979	   1810.70374509	     58.33927083	     26.08752871	     14.14451360	     16.54325638	     39.36612267	    -37.98427390	    -45.00000000	    -41.87886787	  -3158.08166757	  -2809.46766161	     26.72323432	    -26.76000143	   1810.53219123	     13.92387503	      7.74710129	    -18.96943991
      7.45000000	    -37.62102478	    -20.73458435	     27.54324425	   -161.53530612	    808.30974749	     -5.50817564	      9.33448748	    -45.00000000	     40.52796899	    -45.00000000	    -45.00000000	   2426.13567825	  -1187.81612309	    145.43391874	    179.99999979	   1810.26893028	     57.79930417	     25.93237068	     14.46902258	     16.41470532	     39.33986087	    -37.86219191	    -45.00000000	    -42.01626237	  -3158.20589903	  -2809.74589104	     26.75196011	    -27.27368029	   1810.45113271	     14.39152745	      7.81735430	    -18.89550985
      7.46000000	    -37.30942728	    -21.28721700	     28.24077888	   -157.09463505	    806.72708269	     -5.48367861	      9.24839051	    -45.00000000	     40.54358701	    -45.00000000	    -45.00000000	   2426.33502892	  -1188.17847115	    145.54507791	    179.99999979	   1809.82299435	     57.24439416	     25.79419253	     14.80985172	     16.54495326	     39.33845512	    -37.83166729	    -45.00000000	    -42.35048026	  -3158.50477009	  -2809.86394450	     26.64103521	    -27.73932310	   1810.36802606	     14.90806175	      7.95712976	    -18.84485443
      7.47000000	    -36.96486707	    -21.87073835	     28.99877176	   -152.62547793	    805.14398569	     -5.44729606	      9.27202048	    -45.00000000	     40.54811640	    -45.00000000	    -45.00000000	   2426.54549475	  -1188.51832818	    145.70070607	    179.99999979	   1809.34015858	     56.72068295	     25.63284846	     15.12419277	     16.60372801	     39.26284822	    -37.75133059	    -45.00000000	    -42.73606019	  -3158.77754875	  -2809.97053100	     26.62622375	    -28.06849136	   1810.30833235	     15.48127863	      8.07492952	    -18.80385350
      7.48000000	    -36.57148472	    -22.50809610	     29.84907321	   -148.13611904	    803.56367545	     -5.39469139	      9.29153896	    -45.00000000	     40.53302420	    -45.00000000	    -45.00000000	   2426.74572586	  -1188.89958239	    145.87585291	    179.99999979	   1808.83077148	     56.25640744	     25.46312694	     15.40645560	     16.64843282	     39.18972576	    -37.62796349	    -45.00000000	    -43.06796727	  -3159.02271261	  -2810.14342668	     26.55897951	    -28.47260955	   1810.24828993	     16.12404712	      8.13038180	    -18.76854858
      7.49000000	    -36.19044020	    -23.07053203	     30.64440683	   -143.63624561	    801.99195562	     -5.32452134	      9.21728252	    -45.00000000	     40.48661719	    -45.00000000	    -45.00000000	   2426.92349790	  -1189.27573905	    146.00937623	    179.99999979	   1808.29001435	     55.82881495	     25.28523812	     15.67824980	     16.76687201	     39.13861813	    -37.54169711	    -45.00000000	    -43.47887761	  -3159.35116410	  -2810.24074844	     26.47659224	    -28.85897430	   1810.19159372	     16.86592701	      8.25545563	    -18.76105371
      7.50000000	    -35.72007585	    -23.76519335	     31.59126010	   -139.13683539	    800.43775027	     -5.23847878	      9.47740630	    -45.00000000	     40.58228454	    -45.00000000	    -45.00000000	   2427.09312460	  -1189.70373196	    146.25186770	    179.99999979	   1807.67861787	     55.51333907	     25.10373170	     15.90128777	     16.56810825	     38.99636447	    -37.39875791	    -45.00000000	    -43.86753316	  -3159.49438641	  -2810.54410069	     26.49823758	    -29.32117747	   1810.05315088	     17.62312726	      8.25306211	    -18.72160280
      7.51000000	    -35.31725289	    -24.28440898	     32.43764976	   -134.65567553	    798.91487866	     -5.14249142	      9.28335192	    -45.00000000	     40.45658919	    -45.00000000	    -45.00000000	   2427.23909304	  -1190.04396969	    146.43105718	    179.99999979	   1807.14757426	     55.21464565	     24.90772243	     16.07034527	     16.80662604	     38.96578236	    -37.26669169	    -45.00000000	    -44.32670808	  -3159.92674233	  -2810.56516236	     26.41262807	    -29.64735727	   1809.97196836	     18.49515470	      8.39981087	    -18.74374206
      7.52000000	    -34.83866669	    -24.94963879	     33.39566053	   -130.20980549	    797.43883245	     -5.04402260	      9.43378308	    -45.00000000	     40.50756753	    -45.00000000	    -45.00000000	   2427.38569342	  -1190.45564486	    146.67308459	    179.99999979	   1806.53471138	     55.06502456	     24.72175934	     16.19625481	     16.71175053	     38.82620002	    -37.14139986	    -45.00000000	    -44.75719601	  -3160.10525761	  -2810.81140191	     26.36068922	    -30.07751340	   1809.86327963	     19.38657643	      8.39349556	    -18.73923331
      7.53000000	    -34.44458883	    -25.47110367	     34.18735915	   -125.82086271	    796.02660726	     -4.95172360	      9.53551220	    -45.00000000	     40.46813076	    -45.00000000	    -45.00000000	   2427.55410144	  -1190.80578975	    146.85180877	    179.99999979	   1805.98796300	     54.98918474	     24.54415003	     16.26064601	     16.62033442	     38.74955662	    -36.95726956	    -45.00000000	    -44.95718294	  -3160.33585521	  -2811.03647704	     26.32487340	    -30.65774746	   1809.78636825	     20.32145123	      8.47666693	    -18.76788397
      7.54000000	    -34.08412755	    -25.95583814	     34.94821765	   -121.50477081	    794.69060609	     -4.87188904	      9.28289377	    -45.00000000	     40.34626926	    -45.00000000	    -45.00000000	   2427.74385322	  -1191.13626881	    147.02740751	    179.99999979	   1805.51878677	     55.05815821	     24.35702264	     16.23696065	     16.84035864	     38.84493290	    -36.77931903	    -45.00000000	    -45.00000000	  -3160.71367927	  -2811.11405532	     26.02682531	    -31.43107700	   1809.73189282	     21.42389046	      8.52927788	    -18.82139671
      7.55000000	    -33.47975727	    -26.60612212	     35.99808230	   -117.27304563	    793.44026419	     -4.80858388	     10.25530651	    -45.00000000	     40.51897231	    -45.00000000	    -45.00000000	   2427.52159434	  -1191.62702766	    146.96821415	    179.99999979	   1804.84176655	     55.28986860	     24.24567646	     16.27345486	     15.79743792	     38.42506574	    -36.18374604	    -45.00000000	    -45.00000000	  -3160.97004637	  -2811.31926004	     26.00984522	    -32.57186449	   1809.62290377	     22.28515267	      8.58649259	    -18.81790393
